<?xml version="1.0" encoding="UTF-8"?>
<svg version="1.1" xmlns="http://www.w3.org/2000/svg" width="62" height="58">
<path d="M0 0 C2.98584335 0.67625627 4.1210138 2.11392881 6.03515625 4.4609375 C8.79302082 10.17803453 10.47418249 16.14998275 11.03515625 22.4609375 C11.69515625 22.4609375 12.35515625 22.4609375 13.03515625 22.4609375 C11.92574905 25.94764584 10.77177959 29.23577987 9.03515625 32.4609375 C8.37515625 32.1309375 7.71515625 31.8009375 7.03515625 31.4609375 C7.39322917 29.60546875 7.75130208 27.75 8.109375 25.89453125 C7.99963022 22.29605762 6.5658507 19.70726891 5.03515625 16.4609375 C3.57368592 18.91745146 2.11538914 21.37572877 0.66015625 23.8359375 C0.21406006 24.5894751 -0.23203613 25.3430127 -0.69165039 26.11938477 C-3.1069505 30.22298431 -5.46963447 34.3470775 -7.75 38.52734375 C-8.1948877 39.34219238 -8.63977539 40.15704102 -9.09814453 40.99658203 C-9.95582244 42.57610941 -10.80725354 44.15904765 -11.65185547 45.74560547 C-12.23797607 46.82479248 -12.23797607 46.82479248 -12.8359375 47.92578125 C-13.1755249 48.5612085 -13.5151123 49.19663574 -13.86499023 49.85131836 C-14.96484375 51.4609375 -14.96484375 51.4609375 -17.96484375 53.4609375 C-22.01244518 54.09056439 -23.60629945 53.69040585 -27.08984375 51.4609375 C-30.41419484 48.3564509 -32.68788242 44.83909064 -33.96484375 40.4609375 C-33.34636218 34.64721078 -28.90315938 29.61527889 -24.96484375 25.4609375 C-23.95550781 25.02007813 -23.95550781 25.02007813 -22.92578125 24.5703125 C-19.99648215 22.91309947 -19.27197553 20.46734059 -17.96484375 17.4609375 C-26.7031441 23.3072025 -34.16436858 29.08614163 -37.5546875 39.37890625 C-38.31236399 43.22501645 -38.14978141 46.72212799 -36.96484375 50.4609375 C-34.24374928 53.75923383 -32.37351189 54.3655816 -28.21484375 55.3359375 C-23.60105576 55.73215975 -19.38650669 54.69941254 -14.96484375 53.4609375 C-14.96484375 54.1209375 -14.96484375 54.7809375 -14.96484375 55.4609375 C-22.91169248 58.83232787 -31.15001625 60.09453969 -39.46484375 57.2734375 C-43.23400816 54.5407933 -45.48985417 51.88590624 -46.96484375 47.4609375 C-47.82668604 37.63593542 -44.08291113 30.03181161 -37.875 22.55859375 C-30.57783912 14.54514713 -22.0897129 8.18647244 -10.96484375 7.4609375 C-10.69671875 6.6771875 -10.42859375 5.8934375 -10.15234375 5.0859375 C-7.96594034 0.25283523 -4.92209694 0.2086438 0 0 Z " fill="#00274F" transform="translate(48.96484375,-0.4609375)"/>
<path d="M0 0 C2.98584335 0.67625627 4.1210138 2.11392881 6.03515625 4.4609375 C8.79302082 10.17803453 10.47418249 16.14998275 11.03515625 22.4609375 C11.69515625 22.4609375 12.35515625 22.4609375 13.03515625 22.4609375 C11.92574905 25.94764584 10.77177959 29.23577987 9.03515625 32.4609375 C8.37515625 32.1309375 7.71515625 31.8009375 7.03515625 31.4609375 C7.26203125 30.2853125 7.48890625 29.1096875 7.72265625 27.8984375 C8.27179211 23.34384006 7.45263286 20.43807644 5.03515625 16.4609375 C1.4792961 13.89741042 -2.06823304 12.7391513 -6.49609375 12.91796875 C-17.76686678 15.39682548 -28.08914214 22.7664986 -34.40234375 32.2734375 C-37.1609785 37.21787573 -38.37859897 41.78946344 -37.96484375 47.4609375 C-36.64101523 51.34968379 -35.36569053 52.22042943 -31.83984375 54.3359375 C-26.25423728 56.4468461 -20.55477224 54.92466595 -14.96484375 53.4609375 C-14.96484375 54.1209375 -14.96484375 54.7809375 -14.96484375 55.4609375 C-22.91169248 58.83232787 -31.15001625 60.09453969 -39.46484375 57.2734375 C-43.23400816 54.5407933 -45.48985417 51.88590624 -46.96484375 47.4609375 C-47.82668604 37.63593542 -44.08291113 30.03181161 -37.875 22.55859375 C-30.57783912 14.54514713 -22.0897129 8.18647244 -10.96484375 7.4609375 C-10.69671875 6.6771875 -10.42859375 5.8934375 -10.15234375 5.0859375 C-7.96594034 0.25283523 -4.92209694 0.2086438 0 0 Z " fill="#0053A9" transform="translate(48.96484375,-0.4609375)"/>
<path d="M0 0 C0.66 0 1.32 0 2 0 C2.51949219 0.99902344 3.03898437 1.99804688 3.57421875 3.02734375 C4.27774635 4.3312149 4.98222331 5.63457412 5.6875 6.9375 C6.19700195 7.9265332 6.19700195 7.9265332 6.71679688 8.93554688 C8.87561627 12.9124173 8.87561627 12.9124173 12.76953125 14.94140625 C13.50558594 14.96074219 14.24164063 14.98007812 15 15 C13.36980221 19.74239356 10.68037494 26.65981253 6 29 C1.97286336 29.549155 0.34072641 29.2180649 -3.125 27 C-6.44935109 23.8955134 -8.72303867 20.37815314 -10 16 C-9.3521838 9.91052771 -4.25569216 4.25569216 0 0 Z " fill="#0053A9" transform="translate(25,24)"/>
<path d="M0 0 C4.33819052 1.09994689 6.36950647 4.66346002 8.73828125 8.17578125 C9.92578125 10.48828125 9.92578125 10.48828125 9.92578125 12.48828125 C8.1328125 14.0390625 8.1328125 14.0390625 5.73828125 15.80078125 C2.16244672 18.49675744 -1.01187089 21.22836256 -4.07421875 24.48828125 C-11.55647777 14.10473812 -11.55647777 14.10473812 -11.82421875 9.11328125 C-10.42847929 2.36720721 -6.71765305 -0.44278316 0 0 Z " fill="#0053A9" transform="translate(11.07421875,0.51171875)"/>
<path d="M0 0 C2.4375 1.5625 2.4375 1.5625 4 4 C4.75 7.75 4.75 7.75 5 11 C3.88625 10.2884375 3.88625 10.2884375 2.75 9.5625 C-2.10460084 7.07656914 -7.65477938 7.2508275 -13 7 C-10.70531307 0.2924536 -6.88012072 -1.09582568 0 0 Z " fill="#002852" transform="translate(51,0)"/>
</svg>
